<?xml version="1.0" encoding="utf-8"?>
<!-- Generator: Adobe Illustrator 24.1.0, SVG Export Plug-In . SVG Version: 6.00 Build 0)  -->
<svg version="1.1" id="Layer_1" xmlns="http://www.w3.org/2000/svg" xmlns:xlink="http://www.w3.org/1999/xlink" x="0px" y="0px"
	 viewBox="0 0 390.3 143.2" style="enable-background:new 0 0 390.3 143.2;" xml:space="preserve">
<style type="text/css">
	.st0{fill:#83828A;}
	.st1{fill:#FFFFFF;}
	.st2{fill:url(#SVGID_1_);}
	.st3{fill:url(#SVGID_2_);enable-background:new    ;}
</style>
<g>
	<g id="Layer_2_1_">
		<g id="Layer_1-2">
			<path class="st0" d="M161.9,94.2c2.5,1.7,4.5,4,5.7,6.8c1.5,3.4,2.2,7.2,2.1,10.9c0.1,3.7-0.6,7.4-2.1,10.8
				c-2.4,5.7-8.1,9.4-14.3,9.2c-3,0.1-6-0.7-8.6-2.3c-2.5-1.6-4.5-4-5.7-6.8c-1.4-3.4-2.1-7.1-2.1-10.8c-0.1-3.7,0.6-7.4,2.1-10.8
				c1.2-2.9,3.2-5.3,5.8-7c2.6-1.6,5.5-2.5,8.6-2.4C156.4,91.7,159.4,92.6,161.9,94.2z M145.5,100c-1.9,2.5-2.8,6.5-2.8,11.9
				c0,5.4,1,9.3,2.8,11.8c1.8,2.5,4.8,3.9,7.9,3.8c7.1,0,10.7-5.2,10.7-15.6s-3.6-15.7-10.7-15.7C150.3,96.1,147.3,97.5,145.5,100z"
				/>
			<path class="st0" d="M204.3,105c1.8,2.7,2.7,6.5,2.7,11.4c0,4.7-1,8.4-3,11.2c-1.9,2.8-5.2,4.4-8.6,4.3c-3,0.1-5.8-1.1-7.8-3.4
				v14.1l-5.2,0.6v-41.6h4.4l0.4,4c1-1.4,2.4-2.6,3.9-3.5c1.5-0.8,3.1-1.2,4.8-1.2C199.8,100.9,202.6,102.3,204.3,105z M201.4,116.4
				c0-7.6-2.2-11.4-6.7-11.4c-1.4,0-2.8,0.4-4,1.3c-1.2,0.9-2.3,2-3.1,3.3v14.5c0.7,1.1,1.7,2,2.8,2.7c1.1,0.6,2.4,0.9,3.7,0.9
				C199,127.7,201.4,123.9,201.4,116.4z"/>
			<path class="st0" d="M242.3,118.2h-18.9c0.2,3.3,1,5.7,2.5,7.2c1.4,1.5,3.4,2.4,5.5,2.3c1.3,0,2.7-0.2,3.9-0.6
				c1.3-0.5,2.6-1.2,3.8-2l2.2,3.1c-2.9,2.4-6.6,3.7-10.3,3.7c-4.1,0-7.3-1.3-9.6-4c-2.3-2.7-3.5-6.4-3.5-11.1
				c-0.1-2.8,0.5-5.6,1.5-8.2c0.9-2.2,2.4-4.2,4.3-5.6c1.9-1.4,4.2-2.1,6.6-2c3.9,0,7,1.3,9.1,3.9c2.1,2.6,3.1,6.2,3.1,10.8
				C242.4,116.4,242.4,117.3,242.3,118.2z M237.3,114c0-2.9-0.6-5.2-1.7-6.7c-1.3-1.6-3.2-2.4-5.2-2.3c-4.2,0-6.5,3.1-6.9,9.3h13.9
				V114z"/>
			<path class="st0" d="M275.2,103.4c1.6,1.8,2.4,4.2,2.3,6.6v21.3h-5.2v-20.5c0-2.1-0.4-3.6-1.2-4.4c-0.9-0.9-2.2-1.4-3.5-1.3
				c-1.5,0-3,0.5-4.2,1.3c-1.4,1.1-2.5,2.4-3.4,3.9v21h-5.2v-29.6h4.4l0.5,4.4c1-1.5,2.3-2.8,3.9-3.7c1.6-0.9,3.3-1.4,5.1-1.3
				C271.2,100.8,273.5,101.7,275.2,103.4z"/>
			<path class="st0" d="M314.1,131.3v-16.7h-11.7v16.7h-9.2v-39h9.2v15.1h11.7V92.3h9.2v39L314.1,131.3z"/>
			<path class="st0" d="M348.3,92.3v39h-9.2v-39L348.3,92.3z"/>
			<path class="st0" d="M387.9,92.3l-1,6.6h-13.7v9.3h12v6.5h-12v10h14.7v6.6H364v-39L387.9,92.3z"/>
			<polygon class="st1" points="10.3,0.1 30,0 19.7,77.9 0,78 			"/>
			<path class="st1" d="M41.2,18.9l16.2-0.1l0.3,14.9l3.5-5.5c2.2-3.5,5.2-6.5,8.7-8.7c3.2-2,6.8-3.2,10.6-3.2h0.1
				c3.7,0,6.5,1,8.5,3.2s3.1,5.3,3.2,9.5c0,1.3,0,2.5-0.2,3.8l-5.9,44.5l-18.8,0.1l5-37.8c0.1-1,0.2-2,0.2-3c0-5-3.2-5.4-4.1-5.4
				c-2.1,0-4.1,1.4-6.2,4.2c-2.3,3.3-4.2,6.8-5.8,10.5l-0.1,0.3l-4.2,31.3l-18.8,0.1L41.2,18.9z"/>
			<path class="st1" d="M189.7,78.2c-5.6,0-10-1.5-12.9-4.4s-4.5-7.3-4.5-13.3c0-1.1,0.1-3.1,0.4-5.6l3.5-25.9l-7.4,0l1.5-11.8
				l8.2-0.1l3.7-13.7l16.3-2L196.5,17l13.7-0.1l-3.4,11.8l-11.8,0.1l-3.3,25.4c-0.1,1-0.2,2.1-0.2,3.1c-0.1,1.8,0.4,3.5,1.5,4.9
				c1.1,1.2,2.6,1.8,4.2,1.7c1.7,0,3.3-0.4,4.9-1l4.4,11.3c-2.3,1.2-4.7,2.1-7.3,2.7c-3,0.8-6.1,1.2-9.3,1.3H189.7z"/>
			<path class="st1" d="M231.4,77.9c-5.9,0-10.3-2-13.5-6s-5-10-5-17.4c0-6.5,1.2-13,3.6-19c2.3-6,6.3-11.2,11.4-15.1
				c5.2-4,12-6,20.2-6.1h0.4c4.5,0,9,0.6,13.4,1.7c4.1,1,8.1,2.5,11.9,4.6l-5,36.2c-0.2,1.7-0.2,2.7-0.2,3.2c0,1.3,0.3,2.5,0.9,3.7
				c0.4,0.6,0.8,1.1,1.4,1.5l-5.2,11.9c-2.9-0.3-5.6-1.1-8.1-2.5c-2.5-1.4-4.4-3.6-5.4-6.3l-1.4-3.6l-2.1,3.2
				c-1.9,2.9-4.4,5.5-7.3,7.4c-2.9,1.8-6.3,2.7-9.7,2.6L231.4,77.9z M247.2,26.4c-3.7,0-8.8,1.6-11.8,9.2c-2.2,6-3.3,12.3-3.2,18.7
				c0,4.1,0.6,6.7,1.8,8.3c1.2,1.7,3.2,2.6,5.2,2.6c4.1,0,7.7-2.7,10.8-8.1l0.2-0.3l4.1-29.1l-1.7-0.5c-1.7-0.5-3.5-0.7-5.3-0.7
				L247.2,26.4z"/>
			<path class="st1" d="M288.7,16.4l16.2-0.1l0.3,14.9l3.5-5.5c2.2-3.5,5.2-6.5,8.7-8.7c3.2-2.1,6.8-3.2,10.6-3.2h0.1
				c3.7,0,6.5,1,8.5,3.2s3.1,5.4,3.2,9.5c0,1.3,0,2.6-0.2,3.8l-5.9,44.5L314.9,75l5.1-37.8c0.1-1,0.2-2,0.2-3c0-5-3.1-5.4-4.1-5.4
				c-2.1,0-4.1,1.4-6.1,4.2c-2.2,3.3-4.2,6.8-5.8,10.5l-0.1,0.3l-4.3,31.3L281,75.2L288.7,16.4z"/>
			<path class="st1" d="M369.8,76.9c-5.6,0-10-1.5-12.9-4.4s-4.5-7.4-4.5-13.3c0-1,0.1-2.8,0.4-5.7l3.5-25.9l-7.4,0l1.5-11.8
				l8.2-0.1l3.7-13.8l16.3-2l-2.1,15.6l13.7-0.1l-3.4,11.8l-11.8,0.1L371.7,53c-0.2,1.6-0.2,2.5-0.2,3.1c-0.1,1.7,0.4,3.5,1.5,4.8
				c1.1,1.2,2.7,1.8,4.3,1.7c1.7-0.1,3.3-0.4,4.9-1l4.4,11.4c-2.3,1.2-4.7,2.1-7.3,2.7c-3,0.8-6.1,1.2-9.3,1.3L369.8,76.9z"/>
			
				<linearGradient id="SVGID_1_" gradientUnits="userSpaceOnUse" x1="150.2224" y1="129.3643" x2="106.4224" y2="46.9143" gradientTransform="matrix(1 0 0 -1 0 143.2756)">
				<stop  offset="0" style="stop-color:#0E67D8"/>
				<stop  offset="1" style="stop-color:#00D097"/>
			</linearGradient>
			<polyline class="st2" points="153.1,15 135.7,42 163.1,42.2 105.4,100.7 99.8,100.6 124.7,59.3 98.3,59.2 124.8,15 153.1,15 			
				"/>
			
				<linearGradient id="SVGID_2_" gradientUnits="userSpaceOnUse" x1="133.2557" y1="129.6671" x2="104.1357" y2="44.9471" gradientTransform="matrix(1 0 0 -1 0 143.2756)">
				<stop  offset="0" style="stop-color:#16A1F0"/>
				<stop  offset="0.9973" style="stop-color:#00EEC9"/>
			</linearGradient>
			<polygon class="st3" points="139.5,51.5 113.2,51.4 135,15 124.8,15 98.3,59.2 124.7,59.3 99.8,100.6 			"/>
		</g>
	</g>
</g>
</svg>
